<svg
      xmlns="http://www.w3.org/2000/svg"
      xmlns:xlink="http://www.w3.org/1999/xlink"
      version="1.1"
      width="250"
      height="170"
      viewBox="0 0 250 170"
    >
    <polyline stroke="#6495ED" stroke-width="1" fill='none' points="0,170 0.7204610951008645,170 1.440922190201729,170 2.161383285302594,170 2.881844380403458,170 3.6023054755043225,169.86066453629837 4.322766570605188,167.2307076589295 5.043227665706052,164.60075078156066 5.763688760806916,161.97079390419177 6.4841498559077815,159.34083702682292 7.204610951008645,156.71088014945406 7.92507204610951,154.08092327208522 8.645533141210375,151.59030185841797 9.365994236311238,151.59030185841797 10.086455331412104,151.59030185841797 10.806916426512968,151.59030185841794 11.527377521613833,151.59030185841794 12.247838616714697,151.59030185841794 12.968299711815563,151.59030185841794 13.688760806916427,151.53771673108866 14.40922190201729,151.25484501166233 15.129682997118156,150.971973292236 15.85014409221902,150.68910157280965 16.570605187319885,150.4062298533833 17.29106628242075,150.12335813395697 18.011527377521613,149.84048641453066 18.731988472622476,149.6101998224336 19.452449567723345,149.6101998224336 20.172910662824208,149.6101998224336 20.89337175792507,149.6101998224336 21.613832853025936,149.6101998224336 22.334293948126803,149.6101998224336 23.054755043227665,149.6101998224336 23.77521613832853,149.34460752392758 24.495677233429394,148.62694322796455 25.21613832853026,147.90927893200154 25.936599423631126,147.19161463603848 26.65706051873199,146.4739503400755 27.377521613832855,145.75628604411244 28.097982708933717,145.03862174814938 28.81844380403458,144.5865497506924 29.53890489913545,144.5865497506924 30.259365994236312,144.5865497506924 30.979827089337174,144.5865497506924 31.70028818443804,144.5865497506924 32.4207492795389,144.5865497506924 33.14121037463977,144.5865497506924 33.86167146974063,142.68341958760766 34.5821325648415,140.65706516935913 35.30259365994237,138.63071075111063 36.023054755043226,136.60435633286215 36.74351585014409,134.57800191461365 37.46397694524495,132.55164749636512 38.18443804034582,130.52529307811665 38.90489913544669,130.4020688229529 39.62536023054755,130.4020688229529 40.345821325648416,130.4020688229529 41.066282420749275,130.4020688229529 41.78674351585014,130.4020688229529 42.507204610951014,130.4020688229529 43.22766570605187,130.3634692814386 43.94812680115274,129.80903950332396 44.668587896253605,129.25460972520932 45.389048991354464,128.70017994709463 46.10951008645533,128.14575016898007 46.829971181556196,127.5913203908654 47.55043227665706,127.0368906127508 48.27089337175793,126.52106037615044 48.99135446685879,126.52106037615039 49.711815561959654,126.52106037615039 50.43227665706052,126.52106037615039 51.152737752161386,126.52106037615039 51.87319884726225,126.52106037615039 52.59365994236311,126.52106037615039 53.31412103746398,126.4644853904473 54.034582132564836,126.16960970738886 54.75504322766571,125.87473402433042 55.475504322766575,125.57985834127194 56.195965417867434,125.28498265821347 56.9164265129683,124.99010697515504 57.63688760806916,124.69523129209657 58.357348703170025,124.45693059474121 59.0778097982709,124.45693059474121 59.79827089337176,124.45693059474121 60.518731988472624,124.45693059474121 61.23919308357348,124.45693059474121 61.95965417867435,124.45693059474121 62.68011527377522,124.45693059474121 63.40057636887608,124.45693059474121 64.12103746397695,125.30449799572379 64.8414985590778,126.33747076567141 65.56195965417868,127.37044353561899 66.28242074927954,128.4034163055666 67.0028818443804,129.43638907551423 67.72334293948126,130.46936184546178 68.44380403458213,131.5023346154094 69.164265129683,131.68773998437433 69.88472622478386,131.6877399843744 70.60518731988473,131.68773998437447 71.3256484149856,131.68773998437447 72.04610951008645,131.6877399843744 72.76657060518733,131.6877399843744 73.48703170028818,130.02688609389364 74.20749279538904,127.35832310132332 74.9279538904899,124.68976010875292 75.64841498559078,122.0211971161825 76.36887608069163,119.35263412361209 77.08933717579251,116.68407113104175 77.80979827089338,114.01550813847138 78.53025936599424,113.00779903638177 79.2507204610951,113.00779903638177 79.97118155619597,113.00779903638177 80.69164265129683,113.00779903638177 81.41210374639769,113.00779903638177 82.13256484149855,113.00779903638177 82.85302593659942,113.00779903638177 83.57348703170028,113.25342616407313 84.29394812680114,114.83772113768228 85.01440922190203,116.42201611129147 85.73487031700289,118.00631108490066 86.45533141210375,119.5906060585099 87.17579250720462,121.17490103211915 87.89625360230548,122.75919600572828 88.61671469740634,124.09786385164605 89.33717579250721,124.09786385164605 90.05763688760807,124.09786385164605 90.77809798270893,124.09786385164603 91.49855907780979,124.09786385164605 92.21902017291066,124.09786385164603 92.93948126801153,124.09786385164603 93.65994236311239,123.87023246222941 94.38040345821327,123.17420571382073 95.10086455331412,122.47817896541204 95.82132564841498,121.78215221700343 96.54178674351586,121.08612546859469 97.26224783861672,120.39009872018606 97.98270893371757,119.69407197177733 98.70317002881843,119.22567661278535 99.42363112391931,119.22567661278529 100.14409221902017,119.22567661278529 100.86455331412104,119.22567661278529 101.58501440922191,119.22567661278529 102.30547550432277,119.22567661278529 103.02593659942363,119.22567661278535 103.7463976945245,118.83543429787585 104.46685878962536,118.12755288943562 105.18731988472622,117.41967148099533 105.90778097982708,116.71179007255506 106.62824207492795,116.00390866411477 107.34870317002881,115.29602725567449 108.06916426512967,114.58814584723422 108.78962536023054,114.27050675370342 109.51008645533142,114.27050675370342 110.23054755043228,114.27050675370342 110.95100864553315,114.27050675370336 111.67146974063401,114.27050675370336 112.39193083573487,114.27050675370327 113.11239193083574,113.10548233568913 113.8328530259366,109.69362511150499 114.55331412103746,106.28176788732077 115.27377521613832,102.86991066313657 115.99423631123919,99.45805343895242 116.71469740634005,96.04619621476822 117.43515850144092,92.63433899058415 118.1556195965418,90.38750618441404 118.87608069164266,90.38750618441414 119.59654178674351,90.38750618441414 120.31700288184439,90.38750618441414 121.03746397694525,90.38750618441414 121.7579250720461,90.38750618441414 122.47838616714697,90.38750618441414 123.19884726224784,89.88989487060917 123.9193083573487,89.1298072594126 124.63976945244956,88.36971964821613 125.36023054755044,87.60963203701961 126.08069164265129,86.84954442582314 126.80115273775216,86.08945681462657 127.52161383285302,85.32936920343006 128.2420749279539,85.06689290603856 128.96253602305475,85.0668929060385 129.6829971181556,85.06689290603846 130.4034582132565,85.06689290603846 131.12391930835736,85.06689290603846 131.84438040345822,85.0668929060385 132.56484149855908,85.0668929060385 133.28530259365994,85.32114082642083 134.0057636887608,87.1340390413211 134.72622478386168,88.94693725622145 135.4466858789625,90.75983547112179 136.1671469740634,92.57273368602208 136.88760806916426,94.38563190092236 137.60806916426512,96.19853011582269 138.328530259366,97.75718041034068 139.04899135446686,97.75718041034068 139.76945244956772,97.75718041034068 140.48991354466858,97.75718041034072 141.21037463976947,97.75718041034072 141.9308357348703,97.75718041034072 142.6512968299712,97.75718041034077 143.37175792507205,97.35022272405034 144.0922190201729,96.23108908675125 144.81268011527376,95.11195544945222 145.53314121037465,93.99282181215308 146.2536023054755,92.87368817485404 146.97406340057637,91.75455453755495 147.69452449567726,90.63542090025581 148.4149855907781,89.92324494924719 149.13544668587897,89.92324494924719 149.8559077809798,89.92324494924719 150.5763688760807,89.92324494924719 151.29682997118155,89.92324494924719 152.0172910662824,89.92324494924719 152.73775216138327,89.92324494924719 153.45821325648416,87.57956799358925 154.17867435158502,85.23589103793131 154.89913544668588,82.89221408227337 155.61959654178676,80.54853712661541 156.3400576368876,78.20486017095743 157.06051873198848,75.86118321529949 157.78097982708934,73.51750625964156 158.5014409221902,73.51750625964156 159.22190201729106,73.51750625964156 159.94236311239194,73.51750625964156 160.66282420749278,73.51750625964159 161.38328530259366,73.51750625964165 162.10374639769455,73.51750625964165 162.82420749279538,73.51750625964165 163.54466858789627,73.74883591923744 164.2651296829971,74.00013648469763 164.985590778098,74.2514370501578 165.70605187319885,74.50273761561796 166.4265129682997,74.75403818107819 167.14697406340056,75.00533874653834 167.86743515850145,75.25663931199854 168.58789625360228,75.27661021786298 169.30835734870317,75.27661021786298 170.02881844380406,75.27661021786298 170.7492795389049,75.27661021786298 171.46974063400577,75.27661021786298 172.19020172910663,75.27661021786298 172.9106628242075,75.27661021786298 173.63112391930835,75.27661021786298 174.35158501440924,78.77317102928266 175.07204610951007,82.93457086822576 175.79250720461096,87.09597070716885 176.51296829971182,91.2573705461119 177.23342939481267,95.41877038505498 177.95389048991356,99.58017022399802 178.67435158501442,103.74157006294111 179.39481268011528,104.40640909046446 180.11527377521614,104.40640909046446 180.835734870317,104.40640909046446 181.55619596541786,104.40640909046452 182.27665706051874,104.40640909046456 182.99711815561957,104.40640909046456 183.71757925072046,101.32476415362919 184.43804034582132,97.22507580016072 185.15850144092218,93.12538744669232 185.87896253602307,89.02569909322386 186.59942363112393,84.92601073975536 187.31988472622479,80.82632238628692 188.04034582132564,76.72663403281848 188.76080691642653,75.70859061618546 189.48126801152736,75.70859061618546 190.20172910662825,75.70859061618546 190.9221902017291,75.70859061618552 191.64265129682997,75.70859061618552 192.36311239193083,75.70859061618552 193.0835734870317,75.70859061618552 193.80403458213257,75.14973192483406 194.52449567723343,74.55594456527311 195.2449567723343,73.96215720571217 195.96541786743515,73.36836984615124 196.68587896253604,72.7745824865903 197.40634005763687,72.18079512702938 198.12680115273776,71.58700776746844 198.84726224783861,71.55207909925898 199.56772334293947,71.55207909925898 200.28818443804033,71.55207909925898 201.00864553314122,71.55207909925898 201.72910662824208,71.55207909925898 202.44956772334294,71.55207909925898 203.17002881844383,71.464589563233 203.89048991354466,70.66551846752945 204.61095100864554,69.86644737182593 205.3314121037464,69.06737627612243 206.05187319884726,68.26830518041895 206.77233429394812,67.46923408471541 207.492795389049,66.67016298901198 208.21325648414984,65.95858142933442 208.93371757925073,65.95858142933446 209.65417867435158,65.95858142933446 210.37463976945244,65.95858142933446 211.09510086455333,65.95858142933446 211.81556195965416,65.95858142933446 212.53602305475505,65.95858142933442 213.2564841498559,65.94744046028246 213.97694524495677,65.8312560687407 214.69740634005763,65.71507167719898 215.4178674351585,65.59888728565721 216.13832853025934,65.48270289411546 216.85878962536023,65.3665185025737 217.5792507204611,65.25033411103198 218.29971181556195,65.14529068854218 219.02017291066284,65.14529068854218 219.7406340057637,65.14529068854218 220.46109510086455,65.14529068854218 221.1815561959654,65.14529068854218 221.9020172910663,65.14529068854218 222.62247838616713,65.14529068854218 223.34293948126802,62.9395527457867 224.06340057636888,60.148220658936836 224.78386167146974,57.35688857208703 225.5043227665706,54.56555648523721 226.22478386167148,51.7742243983874 226.94524495677234,48.9828923115376 227.6657060518732,46.19156022468778 228.38616714697406,45.60596608059339 229.10662824207492,45.60596608059339 229.8270893371758,45.60596608059339 230.54755043227664,45.60596608059339 231.26801152737752,45.60596608059339 231.98847262247838,45.60596608059336 232.70893371757924,44.53475595164609 233.4293948126801,41.76014610945512 234.149855907781,38.98553626726411 234.87031700288185,36.2109264250731 235.5907780979827,33.43631658288206 236.3112391930836,30.661706740691017 237.03170028818442,27.887096898500005 237.7521613832853,26.183697185256307 238.47262247838617,26.183697185256392 239.19308357348703,26.183697185256392 239.9135446685879,26.183697185256392 240.63400576368878,26.183697185256392 241.3544668587896,26.183697185256307 242.0749279538905,25.68826299064412 242.79538904899135,21.947734821321802 243.5158501440922,18.2072066519994 244.2363112391931,14.46667848267711 244.95677233429393,10.726150313354793 245.67723342939482,6.985622144032419 246.39769452449568,3.2450939747101017 247.11815561959654,0 247.8386167146974,8.526512829121202e-14 248.55907780979828,8.526512829121202e-14 249.2795389048991,0 250,0" />
    </svg>