<svg
      xmlns="http://www.w3.org/2000/svg"
      xmlns:xlink="http://www.w3.org/1999/xlink"
      version="1.1"
      width="250"
      height="170"
      viewBox="0 0 250 170"
    >
    <polyline stroke="#6495ED" stroke-width="1" fill='none' points="0,151.07512596490685 0.7204610951008645,147.82521251989445 1.440922190201729,147.82521251989445 2.161383285302594,149.30244590399107 2.881844380403458,157.87039953175105 3.6023054755043225,162.7454031969636 4.322766570605188,165.49906989727512 5.043227665706052,167.40356102269553 5.763688760806916,165.11645248237713 6.4841498559077815,165.74664625468512 7.204610951008645,163.77316612588766 7.92507204610951,156.31560724353744 8.645533141210375,158.38586994437514 9.365994236311238,156.18860209601374 10.086455331412104,160.89703319964536 10.806916426512968,170 11.527377521613833,167.48883674472972 12.247838616714697,161.83871942037172 12.968299711815563,161.21092860655418 13.688760806916427,154.87547576209465 14.40922190201729,145.42525642382006 15.129682997118156,142.30850562978827 15.85014409221902,136.6865444811363 16.570605187319885,138.60005739851175 17.29106628242075,144.2902366998759 18.011527377521613,149.04666698138047 18.731988472622476,144.6882246612304 19.452449567723345,156.05989411774715 20.172910662824208,160.48221001750358 20.89337175792507,161.11396943175453 21.613832853025936,168.0633229885147 22.334293948126803,159.85045060325263 23.054755043227665,152.26933763224147 23.77521613832853,165.29967317819577 24.495677233429394,158.8234531718421 25.21613832853026,153.66109500533395 25.936599423631126,148.7743421368763 26.65706051873199,143.35148157572073 27.377521613832855,149.58596437140108 28.097982708933717,152.64151289128938 28.81844380403458,139.402208470147 29.53890489913545,140.36495049492655 30.259365994236312,141.9695205362257 30.979827089337174,144.21591859404452 31.70028818443804,133.30484231321032 32.4207492795389,127.84930417279317 33.14121037463977,130.73753024713162 33.86167146974063,134.85907330944337 34.5821325648415,138.70234602740803 35.30259365994237,136.0136221430754 36.023054755043226,134.91525374540436 36.74351585014409,138.8662221520651 37.46397694524495,141.29790784525218 38.18443804034582,133.31819972774886 38.90489913544669,136.20642580208735 39.62536023054755,137.54694005367702 40.345821325648416,135.2010401133951 41.066282420749275,139.89283999395892 41.78674351585014,137.54694005367696 42.507204610951014,138.2171971794718 43.22766570605187,137.16902988489153 43.94812680115274,129.84806996001655 44.668587896253605,130.3517440887495 45.389048991354464,133.49366511477376 46.10951008645533,120.7795342883488 46.829971181556196,125.5893196550624 47.55043227665706,122.99905197974041 48.27089337175793,123.1053697551933 48.99135446685879,131.91983254989782 49.711815561959654,130.2247435509162 50.43227665706052,135.31001054786117 51.152737752161386,140.39527754480605 51.87319884726225,140.39527754480605 52.59365994236311,144.1244733425657 53.31412103746398,138.6319278439835 54.034582132564836,140.06224806006674 54.75504322766571,132.9633421222155 55.475504322766575,127.92957057488819 56.195965417867434,135.80122898710167 56.9164265129683,132.77881067127197 57.63688760806916,135.22204727451143 58.357348703170025,142.43842365441256 59.0778097982709,134.25235231250718 59.79827089337176,141.41516473667434 60.518731988472624,137.6632153716345 61.23919308357348,134.9345249243327 61.95965417867435,138.34538798345986 62.68011527377522,139.02756059528528 63.40057636887608,143.46168257215064 64.12103746397695,143.02484327313107 64.8414985590778,138.9809774097953 65.56195965417868,138.39869758584 66.28242074927954,136.37961113787202 67.0028818443804,142.40167323108562 67.72334293948126,124.63412986663079 68.44380403458213,114.27628541178544 69.164265129683,115.48069783042817 69.88472622478386,121.15598065032935 70.60518731988473,124.82822247497128 71.3256484149856,124.82822247497128 72.04610951008645,108.80389451289736 72.76657060518733,116.81605849393429 73.48703170028818,124.49754355690544 74.20749279538904,126.569289004587 74.9279538904899,126.5849464790382 75.64841498559078,127.76748870425226 76.36887608069163,120.46987830192046 77.08933717579251,124.63515081455311 77.80979827089338,121.6400234768956 78.53025936599424,117.80869030654101 79.2507204610951,118.51380973001483 79.97118155619597,112.87285434222451 80.69164265129683,115.34077232438278 81.41210374639769,125.21244425301599 82.13256484149855,133.32131762296467 82.85302593659942,140.72507156943954 83.57348703170028,148.70365678352147 84.29394812680114,152.61633987883587 85.01440922190203,151.7821178323233 85.73487031700289,142.59759848206028 86.45533141210375,137.2134409163485 87.17579250720462,129.42804683523957 87.89625360230548,129.26560347882028 88.61671469740634,131.50132186014287 89.33717579250721,124.67239918127504 90.05763688760807,125.0138453152184 90.77809798270893,132.86710639591644 91.49855907780979,126.03818371704865 92.21902017291066,130.8184295922561 92.93948126801153,133.20855252985982 93.65994236311239,121.68693921676278 94.38040345821327,119.56924703643868 95.10086455331412,121.62702873819376 95.82132564841498,114.39252706589114 96.54178674351586,117.37211430885584 97.26224783861672,116.67879687037416 97.98270893371757,117.74153527333351 98.70317002881843,122.06770705150714 99.42363112391931,126.91630816712832 100.14409221902017,125.53099356266512 100.86455331412104,125.87732221378091 101.58501440922191,131.76490928274944 102.30547550432277,130.72592332940206 103.02593659942363,124.49200760931771 103.7463976945245,120.2553443341736 104.46685878962536,114.64202915597048 105.18731988472622,111.47784291423325 105.90778097982708,110.72306020311342 106.62824207492795,107.91016828822302 107.34870317002881,104.02849636559893 108.06916426512967,106.44529394756289 108.78962536023054,112.77228885647932 109.51008645533142,114.8800548175604 110.23054755043228,119.79817539341636 110.95100864553315,112.77228885647938 111.67146974063401,111.36711154909199 112.39193083573487,102.23345905107395 113.11239193083574,92.81340586576623 113.8328530259366,86.53267389678821 114.55331412103746,84.11617952312558 115.27377521613832,74.13103519027473 115.99423631123919,85.39879615374986 116.71469740634005,84.76270705124696 117.43515850144092,92.46194724536626 118.1556195965418,97.38167373285577 118.87608069164266,87.25051871100126 119.59654178674351,85.74960685591172 120.31700288184439,89.12665852986316 121.03746397694525,82.74778314573263 121.7579250720461,79.37073147178111 122.47838616714697,83.87346703704979 123.19884726224784,85.2644045057661 123.9193083573487,102.9947517738228 124.63976945244956,110.95317630192449 125.36023054755044,105.99922513699337 126.08069164265129,118.14913999408307 126.80115273775216,121.90007851132391 127.52161383285302,118.130462071244 128.2420749279539,120.15789030765728 128.96253602305475,115.5911720148969 129.6829971181556,109.88277414894645 130.4034582132565,113.30781286851672 131.12391930835736,106.45773542937613 131.84438040345822,108.7410945757563 132.56484149855908,103.03269670980586 133.28530259365994,91.52783656490482 134.0057636887608,91.7732869956134 134.72622478386168,81.05976065138971 135.4466858789625,85.85921218160958 136.1671469740634,80.54887106535723 136.88760806916426,73.43746820644783 137.60806916426512,82.44851255819631 138.328530259366,89.391434109056 139.04899135446686,85.71300746424693 139.76945244956772,96.74828739867405 140.48991354466858,99.69102871452127 141.21037463976947,102.26592736588758 141.9308357348703,107.04788200413938 142.6512968299712,108.51925266206295 143.37175792507205,110.68592298144226 144.0922190201729,104.63218007815381 144.81268011527376,104.99662391280475 145.53314121037465,97.21357531495445 146.2536023054755,96.08309685714407 146.97406340057637,93.43414447233461 147.69452449567726,85.22829939608212 148.4149855907781,85.26528623375833 149.13544668587897,89.39791153635322 149.8559077809798,84.88959302443153 150.5763688760807,87.51944548971919 151.29682997118155,80.005581303183 152.0172910662824,76.6243424192417 152.73775216138327,76.62434241924166 153.45821325648416,66.4635542108827 154.17867435158502,71.03944256943336 154.89913544668588,76.36671734663761 155.61959654178676,72.87220256870391 156.3400576368876,85.07703876691353 157.06051873198848,92.26633906887719 157.78097982708934,97.9528665335337 158.5014409221902,105.0112736951604 159.22190201729106,97.16859907113074 159.94236311239194,94.42366295272043 160.66282420749278,84.62031967268332 161.38328530259366,78.73831370466104 162.10374639769455,73.24844146784025 162.82420749279538,68.93497042462391 163.54466858789627,66.04293444295607 164.2651296829971,72.94895324057842 164.985590778098,70.85352455638987 165.70605187319885,91.06035921038072 166.4265129682997,91.69928964310859 167.14697406340056,100.15797786329581 167.86743515850145,98.07136334701899 168.58789625360228,101.99622632619858 169.30835734870317,113.31698235715402 170.02881844380406,128.54144736430106 170.7492795389049,128.93181826192023 171.46974063400577,127.76070556906271 172.19020172910663,116.04957864048818 172.9106628242075,130.10293095477772 173.63112391930835,128.54144736430112 174.35158501440924,108.48365314767781 175.07204610951007,97.88233515213464 175.79250720461096,95.15769885311897 176.51296829971182,95.72029846616641 177.23342939481267,102.47044932230676 177.95389048991356,89.93558777274372 178.67435158501442,89.83421182818 179.39481268011528,93.87299797607457 180.11527377521614,91.70592194680043 180.835734870317,88.81648724110156 181.55619596541786,84.84351452076554 182.27665706051874,77.61992775651822 182.99711815561957,80.87054180042948 183.71757925072046,80.53900623550932 184.43804034582132,84.9061941655113 185.15850144092218,82.90326404085893 185.87896253602307,70.24089784678037 186.59942363112393,78.39243113768924 187.31988472622479,87.1225297893702 188.04034582132564,85.14835832784841 188.76080691642653,86.81385380141911 189.48126801152736,82.1345977853044 190.20172910662825,80.18490777858989 190.9221902017291,85.64403979739035 191.64265129682997,82.13459778530434 192.36311239193083,77.84527977053256 193.0835734870317,71.60627174904634 193.80403458213257,66.71714706585578 194.52449567723343,70.8257536821554 195.2449567723343,72.17147169636489 195.96541786743515,86.52259944973571 196.68587896253604,87.12176405394932 197.40634005763687,83.7507381352678 198.12680115273776,86.63121621033132 198.84726224783861,89.74655489698824 199.56772334293947,82.65269503926389 200.28818443804033,72.40600857810644 201.00864553314122,62.159322116949 201.72910662824208,59.400598838945044 202.44956772334294,56.641875560941116 203.17002881844383,62.07524176323413 203.89048991354466,72.85401679861745 204.61095100864554,79.97936012376638 205.3314121037464,88.61385246766001 206.05187319884726,88.24002189582679 206.77233429394812,82.63634631204273 207.492795389049,81.33417516649321 208.21325648414984,81.84944766997613 208.93371757925073,67.45993510561175 209.65417867435158,60.66488750577298 210.37463976945244,57.866926729368785 211.09510086455333,59.06605277639915 211.81556195965416,65.06168301155098 212.53602305475505,70.2578958820159 213.2564841498559,65.44998148295883 213.97694524495677,65.32609919280101 214.69740634005763,60.395932533719815 215.4178674351585,65.47722827976212 216.13832853025934,58.95963710224272 216.85878962536023,55.24000670112751 217.5792507204611,51.11333248206732 218.29971181556195,43.39580024245066 219.02017291066284,40.99265805798902 219.7406340057637,53.80941637511809 220.46109510086455,45.79894242691242 221.1815561959654,40.59213436057871 221.9020172910663,45.79894242691242 222.62247838616713,53.4088926777078 223.34293948126802,60.00778909311826 224.06340057636888,64.47591042644848 224.78386167146974,52.648953341361874 225.5043227665706,49.916556787280854 226.22478386167148,45.044476485145665 226.94524495677234,28.498466703396815 227.6657060518732,21.55611699352093 228.38616714697406,30.63109677295469 229.10662824207492,30.210992323972533 229.8270893371758,30.631096772954635 230.54755043227664,29.37078342600833 231.26801152737752,32.3115145688831 231.98847262247838,49.95590142613143 232.70893371757924,45.40779552582171 233.4293948126801,21.972922764515715 234.149855907781,13.953761881758766 234.87031700288185,7.019743316832063 235.5907780979827,9.561584001666432 236.3112391930836,13.480518719524383 237.03170028818442,0 237.7521613832853,5.584699818331501 238.47262247838617,21.409144098151103 239.19308357348703,20.53000830482773 239.9135446685879,19.21130461484276 240.63400576368878,23.606983581459303 241.3544668587896,16.13432933821116 242.0749279538905,16.48868090270011 242.79538904899135,15.117987629935158 243.5158501440922,18.175711233075987 244.2363112391931,23.89058272978093 244.95677233429393,27.01402657155188 245.67723342939482,31.259257807469083 246.39769452449568,37.74830825173052 247.11815561959654,35.708392877175925 247.8386167146974,43.16130660682995 248.55907780979828,36.64000709338271 249.2795389048991,30.584514688038837 250,32.44774312045237" />
    </svg>